<svg width="41" height="40" viewBox="0 0 41 40" fill="none" xmlns="http://www.w3.org/2000/svg">
<path d="M28.9167 33.8C27.2833 35.3833 25.5 35.1333 23.7833 34.3833C21.9667 33.6167 20.3 33.5833 18.3833 34.3833C15.9833 35.4167 14.7167 35.1167 13.2833 33.8C5.14999 25.4167 6.34999 12.65 15.5833 12.1833C17.8333 12.3 19.4 13.4167 20.7167 13.5167C22.6833 13.1167 24.5667 11.9667 26.6667 12.1167C29.1833 12.3167 31.0833 13.3167 32.3333 15.1167C27.1333 18.2333 28.3667 25.0833 33.1333 27C32.1833 29.5 30.95 31.9833 28.9 33.8167L28.9167 33.8ZM20.55 12.0833C20.3 8.36667 23.3167 5.3 26.7833 5C27.2667 9.3 22.8833 12.5 20.55 12.0833Z" fill="black"/>
</svg>
